<svg width="160" height="145" viewBox="0 0 160 145" fill="none" xmlns="http://www.w3.org/2000/svg">
<g clip-path="url(#clip0_69_8)">
<rect width="51.3001" height="37.3588" transform="matrix(0.532989 -0.846122 0.843099 0.537758 4.79013 53.4061)" fill="#72AA4F"/>
<circle cx="48.3375" cy="20.5" r="19.5" fill="#72AA4F"/>
<rect x="51.8375" width="55" height="36" fill="#72AA4F"/>
<rect width="52.5681" height="37.1182" transform="matrix(-0.532989 -0.846122 -0.843099 0.537758 153.711 54.2569)" fill="#72AA4F"/>
<ellipse cx="19" cy="19.5" rx="19" ry="19.5" transform="matrix(-1 0 0 1 128.838 1)" fill="#72AA4F"/>
<rect width="5.06777" height="1.67398" transform="matrix(-0.979409 -0.201886 -0.201886 0.979409 113.354 1.31769)" fill="#72AA4F"/>
<ellipse cx="4" cy="2" rx="4" ry="2" transform="matrix(-1 0 0 1 110.286 0)" fill="#72AA4F"/>
<rect width="47.489" height="34.861" transform="matrix(0.529334 -0.848413 0.845423 0.534097 99.6663 110.504)" fill="#7FBF58"/>
<rect width="13.1702" height="18.0755" transform="matrix(0.529334 -0.848413 0.845423 0.534097 132.005 58.4521)" fill="#7FBF58"/>
<ellipse cx="17.1189" cy="26.0457" rx="17.1189" ry="26.0457" transform="matrix(0.999765 -0.0216774 0.0214085 0.999771 123.561 45.9227)" fill="#7FBF58"/>
<rect width="35.4506" height="10.0596" transform="matrix(0.552019 -0.833832 0.830638 0.556814 116.239 64.5598)" fill="#72AA4F"/>
<rect width="36.0437" height="2.1156" transform="matrix(0.552019 -0.833832 0.830638 0.556814 121.407 71.5691)" fill="#72AA4F"/>
<rect width="5.47195" height="13.2124" transform="matrix(0.842061 -0.539383 0.534611 0.845098 141.617 45.1902)" fill="#7FBF58"/>
<rect width="3.16031" height="7.11362" transform="matrix(0.832592 0.553886 -0.549094 0.83576 144.008 41.2955)" fill="#7FBF58"/>
<rect width="2.13215" height="1.27456" transform="matrix(0.574485 0.818515 -0.815202 0.579177 145.042 40.5549)" fill="#7FBF58"/>
<rect width="0.7213" height="1.17705" transform="matrix(0.840856 0.541259 -0.53642 0.843951 144.601 40.3725)" fill="#7FBF58"/>
<rect width="0.925765" height="0.293851" transform="matrix(0.537041 0.843556 0.840458 -0.541877 144.604 40.3641)" fill="#7FBF58"/>
<rect width="0.118298" height="0.427806" transform="matrix(0.818691 0.574234 0.569522 -0.821976 144.522 40.497)" fill="#7FBF58"/>
<rect width="0.118298" height="0.0738907" transform="matrix(0.546057 0.837748 0.834598 -0.55086 144.743 40.168)" fill="#7FBF58"/>
<rect width="48.7188" height="34.4002" transform="matrix(-0.529334 -0.848413 -0.845423 0.534097 58.8022 109.299)" fill="#7FBF58"/>
<rect width="31.0466" height="12.1602" transform="matrix(-0.529334 -0.848413 -0.845423 0.534097 40.0001 121.178)" fill="#9DF06A"/>
<ellipse cx="16.9001" cy="26.0457" rx="16.9001" ry="26.0457" transform="matrix(-0.999765 -0.0216774 -0.0214085 0.999771 34.9075 44.7184)" fill="#7FBF58"/>
<ellipse cx="17.1529" cy="18.4261" rx="17.1529" ry="18.4261" transform="matrix(-0.863935 0.503604 0.498918 0.866649 32.5696 66.2923)" fill="#7FBF58"/>
<rect width="32.6457" height="7.32387" transform="matrix(-0.552019 -0.833832 -0.830638 0.556814 40.5802 66.3185)" fill="#72AA4F"/>
<rect width="5.20302" height="13.2124" transform="matrix(-0.842061 -0.539383 -0.534611 0.845098 16.8517 43.986)" fill="#7FBF58"/>
<rect width="3.16031" height="6.91646" transform="matrix(-0.832592 0.553886 0.549095 0.83576 14.5685 40.256)" fill="#7FBF58"/>
<rect width="2.00504" height="1.55301" transform="matrix(-0.551878 0.833925 0.830741 0.556659 13.4618 39.6884)" fill="#7FBF58"/>
<rect width="1.21118" height="1.0856" transform="matrix(-0.834148 0.55154 0.54674 0.837303 14.1055 39.5552)" fill="#7FBF58"/>
<rect width="0.961311" height="0.762788" transform="matrix(-0.547707 0.83667 0.83351 0.552504 13.637 39.3942)" fill="#7FBF58"/>
<rect width="0.367324" height="0.424351" transform="matrix(-0.825493 0.564412 0.559661 0.828722 13.8936 39.2401)" fill="#7FBF58"/>
<rect width="0.367324" height="0.424351" transform="matrix(-0.825493 0.564412 0.559661 0.828722 13.8936 39.2401)" fill="#7FBF58"/>
<rect width="0.738038" height="0.153322" transform="matrix(-0.54026 0.841499 0.838381 0.545084 13.7697 39.1653)" fill="#7FBF58"/>
<rect width="0.0782652" height="0.163603" transform="matrix(-0.818557 0.574425 0.569714 0.821843 13.8157 39.1288)" fill="#7FBF58"/>
<rect x="54.8375" y="109" width="49" height="36" fill="#9DF06A"/>
<ellipse cx="19.1871" cy="12.3166" rx="19.1871" ry="12.3166" transform="matrix(0.952164 0.305589 -0.302145 0.953262 35.9695 114.321)" fill="#9DF06A"/>
<rect width="6.09134" height="8.25699" transform="matrix(0.84649 -0.532405 0.527646 0.849464 28.5612 125.8)" fill="#9DF06A"/>
<rect x="28.8375" y="109" width="36" height="17" fill="#9DF06A"/>
<rect width="48.4463" height="34.0248" transform="matrix(0.547007 -0.837128 0.833979 0.551797 99.5233 109.292)" fill="#7FBF58"/>
<rect width="32.5297" height="13.2169" transform="matrix(0.529334 -0.848413 0.845423 0.534097 118.097 121.772)" fill="#9DF06A"/>
<ellipse cx="17.4833" cy="18.3437" rx="17.4833" ry="18.3437" transform="matrix(0.863935 0.503604 -0.498918 0.866649 126.375 66.3997)" fill="#7FBF58"/>
<ellipse cx="20.407" cy="12.0308" rx="20.407" ry="12.0308" transform="matrix(-0.948003 0.318263 0.314707 0.949189 124.214 113.96)" fill="#9DF06A"/>
<rect width="7.28708" height="8.25541" transform="matrix(-0.828062 -0.560637 -0.555839 0.83129 130.6 127.203)" fill="#9DF06A"/>
<rect width="36" height="18" transform="matrix(-1 0 0 1 129.838 109)" fill="#9DF06A"/>
<rect width="21" height="2" transform="matrix(-1 0 0 1 137.838 109)" fill="#9DF06A"/>
<rect x="26.8375" y="106" width="7" height="3" fill="#7FBF58"/>
<rect x="123.838" y="106" width="6" height="3" fill="#7FBF58"/>
<rect x="44.2863" y="1.31769" width="5.06777" height="1.67398" transform="rotate(-11.6472 44.2863 1.31769)" fill="#72AA4F"/>
<ellipse cx="51.3538" cy="2" rx="4" ry="2" fill="#72AA4F"/>
</g>
<defs>
<clipPath id="clip0_69_8">
<rect width="159.028" height="144.786" fill="white" transform="translate(0.193909) rotate(0.076742)"/>
</clipPath>
</defs>
</svg>
