<svg width="210" height="205" viewBox="0 0 210 205" fill="none" xmlns="http://www.w3.org/2000/svg">
<path d="M115.241 121.946C129.016 121.922 140.37 124.647 151.053 130.008C153.359 131.038 155.414 132.556 157.075 134.456C158.128 135.822 158.705 138.786 157.912 140.024C156.974 141.488 154.302 142.599 152.443 142.521C150.221 142.431 147.914 141.157 145.894 139.973C130.206 130.768 113.511 129.707 96.2037 133.729C86.9882 135.87 79.7529 141.194 73.7925 148.384C73.1273 149.187 72.5375 150.055 71.8741 150.857C70.4836 152.532 69.1399 155.19 66.5769 153.444C64.0669 151.736 64.6899 148.911 66.0858 146.632C71.9521 137.039 80.0103 130.047 90.6986 126.225C98.6092 123.539 106.889 122.095 115.241 121.946Z" fill="#BEBEBE"/>
<path d="M70.9482 103.241C64.8972 102.961 59.446 100.949 55.3133 96.0737C53.5679 94.0119 52.1909 91.5224 54.5279 89.3406C56.7978 87.2204 58.8004 88.9892 60.6238 90.8099C68.2329 98.4028 78.0625 96.0451 81.6626 85.8282C82.1584 84.4225 82.6181 83.0016 83.1866 81.6275C84.083 79.4661 85.8248 77.857 88.0184 78.8556C88.8055 79.3001 89.4839 79.9141 90.0047 80.6529C90.5257 81.3916 90.876 82.2367 91.0305 83.1273C91.3212 85.9654 90.8956 88.8309 89.7927 91.4619C88.6896 94.0929 86.9445 96.4055 84.7167 98.1876C80.7948 101.493 76.1772 102.942 70.9482 103.241Z" fill="#BEBEBE"/>
<path d="M139.267 96.9148C135.752 96.5897 132.366 95.421 129.398 93.5078C126.43 91.5946 123.968 88.9937 122.22 85.9254C121.084 83.8422 120.556 81.4813 120.696 79.1123C120.76 77.7856 122.449 75.7059 123.663 75.5069C124.798 75.3168 126.98 76.8873 127.46 78.1522C128.725 81.4968 130.371 84.2832 133.506 86.1495C139.006 89.4252 142.554 88.4802 145.471 82.8325C147.823 78.2785 150.099 76.7493 152.727 77.9559C155.184 79.0845 155.766 82.293 154.33 86.7976C152.323 93.1032 147.204 96.8682 139.267 96.9148Z" fill="#BEBEBE"/>
<path d="M53.994 68.833C51.3113 67.5151 48.713 66.0322 46.2138 64.393C45.5395 63.9044 45.5585 61.8686 45.9395 60.7802C46.1187 60.2782 48.0909 59.898 48.9677 60.2262C57.6963 63.5054 64.1489 59.2032 70.226 53.9034C71.9956 52.3598 73.2282 50.2128 74.7799 48.4046C76.3039 46.6305 78.1399 44.9981 80.5172 46.6117C82.8435 48.194 82.1578 50.6323 81.1179 52.6529C76.9099 60.8285 69.6317 64.8556 61.0867 67.007C58.9299 67.5503 56.6941 67.767 54.4915 68.1346C54.3248 68.3671 54.1589 68.5999 53.994 68.833Z" fill="#BEBEBE"/>
<path d="M147.415 63.5616C139.503 63.0041 133.018 60.4134 128.052 54.6814C126.913 53.5088 126.078 52.0753 125.62 50.5058C125.376 49.3117 125.906 47.2936 126.791 46.7227C127.676 46.1515 130.054 46.4412 130.681 47.2273C135.879 53.7517 142.815 55.3484 150.648 55.0266C152.96 54.9316 155.361 55.6112 155.52 58.5085C155.667 61.1799 153.737 62.4528 151.364 62.9816C149.92 63.3044 148.432 63.4182 147.415 63.5616Z" fill="#BEBEBE"/>
<path d="M3.71464 74.0123C-5.56539 110.486 2.56091 142.663 27.8847 169.659C28.5444 170.356 29.2159 171.054 29.8882 171.727C43.4909 185.329 60.4347 193.728 73.8608 199.573C79.6222 202.088 109.19 205.145 117.189 203.953C164.73 196.853 196.017 170.04 206.912 125.18C208.993 116.392 210.03 107.39 209.999 98.3598C210.051 77.0871 201.094 52.3559 182.622 33.8335C180.721 32.2611 178.826 30.6322 176.993 29.0536C173.019 25.6373 168.911 22.1 164.613 19.0835C131.784 -4.02247 97.6758 -4.15176 63.2361 8.10088C32.0541 19.1873 12.0292 41.3672 3.71464 74.0123ZM63.3696 19.0225C93.5871 6.46586 123.906 4.24984 153.476 23.0564C158.884 26.4988 173.298 38.1491 175.567 39.8989L175.713 40.0064L175.833 40.1401C187.369 52.3739 200.58 74.7431 200.289 97.7378C200.192 107.57 198.862 117.351 196.327 126.851C188.815 154.154 170.857 174.051 141.426 187.661C111.507 201.986 68.5995 187.503 57.1833 179.968C44.5647 171.34 33.5237 160.608 24.5428 148.239C10.4577 128.298 7.29684 99.6327 14.8611 73.4286C18.4036 61.3294 24.5943 50.1702 32.9841 40.76C41.3739 31.3497 51.7527 23.9244 63.3679 19.0225H63.3696Z" fill="#BEBEBE"/>
</svg>
